<svg xmlns="http://www.w3.org/2000/svg" xmlns:xlink="http://www.w3.org/1999/xlink" version="1.1" width="265.32pt" height="72.02pt" viewBox="0 0 265.32 72.02">
<g>
<path d="M47.902 13.336H0C0 18.027 .664 28.504 4.121 40.012H23.949V45.348H5.91C6.57 47.121 7.305 48.906 8.117 50.68H23.949V56.016H10.832C11.855 57.828 12.977 59.613 14.195 61.352H23.949V66.688H18.426C20.113 68.566 21.949 70.355 23.949 72.02 45.336 54.215 47.902 22.57 47.902 13.336" fill="#ee273d"/>
<path d="M23.949 61.352H14.195C15.488 63.191 16.891 64.977 18.426 66.688H23.949V61.352" fill="#ffffff"/>
<path d="M23.949 50.68H8.117C8.938 52.477 9.844 54.258 10.832 56.016H23.949V50.68" fill="#ffffff"/>
<path d="M23.949 40.012H4.121C4.648 41.77 5.242 43.555 5.91 45.348H23.949V40.012" fill="#ffffff"/>
<path d="M21.297 20.031V25.414H15.965V20.031H13.297V27.723C13.297 29.992 12.574 31.48 10.539 31.48 8.5 31.48 7.777 29.992 7.777 27.723V20.031H5.113V28.543C5.113 32.113 7.129 33.582 10.539 33.582 13.852 33.582 15.852 32.191 15.961 28.832H15.965V27.512H21.297V33.352H23.961V20.031H21.297" fill="#ffffff"/>
<path d="M42.566 6.66C42.566 8.871 41.375 10.664 39.906 10.664 38.438 10.664 37.242 8.871 37.242 6.66 37.242 4.449 38.438 2.66 39.906 2.66 41.375 2.66 42.566 4.449 42.566 6.66" fill="#ee273d"/>
<path d="M29.809 50.68C35.574 44.027 39.137 34.875 39.137 24.777 39.137 20.832 38.594 17.035 37.59 13.477 36.16 8.418 34.191 3.84 31.133 0H27.941C31 3.84 32.969 8.418 34.395 13.477 35.402 17.035 35.941 20.832 35.941 24.777 35.941 34.875 32.383 44.027 26.613 50.68H29.809" fill="#231f20"/>
<path d="M53.301 21.398H56.5V30.613C56.5 33.336 57.367 35.117 59.812 35.117 62.258 35.117 63.129 33.336 63.129 30.613V21.398H66.328V31.598C66.328 35.875 63.902 37.633 59.812 37.633 55.723 37.633 53.301 35.875 53.301 31.598V21.398" fill="#231f20"/>
<path d="M69.641 25.582H72.539V27.184H72.586C73.547 25.836 74.848 25.309 76.449 25.309 79.234 25.309 80.449 27.277 80.449 29.93V37.359H77.387V31.07C77.387 29.629 77.363 27.688 75.398 27.688 73.18 27.688 72.703 30.09 72.703 31.598V37.359H69.641V25.582" fill="#231f20"/>
<path d="M83.668 25.582H86.73V37.359H83.668ZM83.668 20.508H86.73V23.434H83.668V20.508" fill="#231f20"/>
<path d="M88.648 25.582H91.941L94.863 34.16H94.91L97.742 25.582H100.805L96.465 37.359H93.016L88.648 25.582" fill="#231f20"/>
<path d="M110.035 30.316C109.945 28.832 109.262 27.551 107.547 27.551 105.832 27.551 104.965 28.738 104.828 30.316ZM112.094 36.695C110.973 37.312 109.695 37.633 108.051 37.633 104.164 37.633 101.902 35.395 101.902 31.527 101.902 28.121 103.707 25.309 107.363 25.309 111.727 25.309 112.961 28.305 112.961 32.422H104.828C104.965 34.32 106.289 35.395 108.188 35.395 109.672 35.395 110.949 34.844 112.094 34.203V36.695" fill="#231f20"/>
<path d="M115.43 25.582H118.148V28.258H118.195C118.332 27.16 119.59 25.309 121.414 25.309 121.715 25.309 122.035 25.309 122.352 25.402V28.488C122.078 28.328 121.531 28.234 120.98 28.234 118.492 28.234 118.492 31.348 118.492 33.039V37.359H115.43V25.582" fill="#231f20"/>
<path d="M131.242 28.055C130.305 27.734 129.621 27.551 128.5 27.551 127.68 27.551 126.695 27.848 126.695 28.852 126.695 30.727 132.02 29.539 132.02 33.793 132.02 36.535 129.574 37.633 127.082 37.633 125.918 37.633 124.73 37.43 123.609 37.133L123.793 34.617C124.754 35.098 125.758 35.395 126.809 35.395 127.586 35.395 128.82 35.098 128.82 33.953 128.82 31.645 123.496 33.223 123.496 28.969 123.496 26.43 125.711 25.309 128.113 25.309 129.551 25.309 130.488 25.539 131.449 25.742L131.242 28.055" fill="#231f20"/>
<path d="M134.465 25.582H137.523V37.359H134.465ZM134.465 20.508H137.523V23.434H134.465V20.508" fill="#231f20"/>
<path d="M141.754 27.824H139.488V25.582H141.754V23.227L144.812 22.246V25.582H147.535V27.824H144.812V33.312C144.812 34.32 145.09 35.258 146.254 35.258 146.801 35.258 147.328 35.141 147.648 34.938L147.738 37.359C147.102 37.543 146.391 37.633 145.477 37.633 143.078 37.633 141.754 36.148 141.754 33.816V27.824" fill="#231f20"/>
<path d="M154.523 34.18H154.57L157.406 25.582H160.512L156.102 37.27C155.121 39.875 154.41 42.438 151.211 42.438 150.48 42.438 149.75 42.32 149.039 42.117L149.246 39.852C149.637 39.988 150.07 40.059 150.824 40.059 152.059 40.059 152.812 39.211 152.812 37.953L148.312 25.582H151.691L154.523 34.18" fill="#231f20"/>
<path d="M168.969 21.398H172.164V27.848H178.562V21.398H181.762V37.359H178.562V30.363H172.164V37.359H168.969V21.398" fill="#231f20"/>
<path d="M190.582 35.258C192.938 35.258 193.555 33.152 193.555 31.188 193.555 29.379 192.594 27.688 190.582 27.688 188.594 27.688 187.637 29.426 187.637 31.188 187.637 33.129 188.254 35.258 190.582 35.258ZM190.582 25.309C194.078 25.309 196.754 27.664 196.754 31.551 196.754 34.938 194.488 37.633 190.582 37.633 186.699 37.633 184.438 34.938 184.438 31.551 184.438 27.664 187.109 25.309 190.582 25.309" fill="#231f20"/>
<path d="M206.145 28.055C205.207 27.734 204.52 27.551 203.402 27.551 202.578 27.551 201.598 27.848 201.598 28.852 201.598 30.727 206.922 29.539 206.922 33.793 206.922 36.535 204.477 37.633 201.984 37.633 200.82 37.633 199.633 37.43 198.512 37.133L198.695 34.617C199.652 35.098 200.66 35.395 201.711 35.395 202.488 35.395 203.723 35.098 203.723 33.953 203.723 31.645 198.398 33.223 198.398 28.969 198.398 26.43 200.613 25.309 203.012 25.309 204.453 25.309 205.391 25.539 206.348 25.742L206.145 28.055" fill="#231f20"/>
<path d="M212.383 31.438C212.383 33.105 213.043 35.258 215.078 35.258 217.09 35.258 217.66 33.062 217.66 31.438 217.66 29.859 217.109 27.688 215.121 27.688 213.156 27.688 212.383 29.789 212.383 31.438ZM209.297 25.582H212.223V27.254H212.266C212.953 26.109 214.117 25.309 215.922 25.309 219.531 25.309 220.859 28.191 220.859 31.438 220.859 34.66 219.531 37.633 215.855 37.633 214.551 37.633 213.477 37.312 212.402 36.012H212.359V42.16H209.297V25.582" fill="#231f20"/>
<path d="M223.324 25.582H226.387V37.359H223.324ZM223.324 20.508H226.387V23.434H223.324V20.508" fill="#231f20"/>
<path d="M230.613 27.824H228.352V25.582H230.613V23.227L233.676 22.246V25.582H236.395V27.824H233.676V33.312C233.676 34.32 233.949 35.258 235.117 35.258 235.664 35.258 236.191 35.141 236.512 34.938L236.602 37.359C235.961 37.543 235.254 37.633 234.34 37.633 231.941 37.633 230.613 36.148 230.613 33.816V27.824" fill="#231f20"/>
<path d="M242.609 35.395C243.547 35.395 244.277 34.98 244.758 34.34 245.262 33.68 245.398 32.832 245.398 31.918H244.074C242.703 31.918 240.668 32.145 240.668 33.953 240.668 34.957 241.516 35.395 242.609 35.395ZM239.023 26.199C240.211 25.652 241.812 25.309 243.113 25.309 246.699 25.309 248.188 26.797 248.188 30.27V31.781C248.188 32.969 248.211 33.859 248.23 34.73 248.254 35.621 248.301 36.445 248.367 37.359H245.672C245.559 36.742 245.559 35.965 245.535 35.598H245.488C244.781 36.902 243.25 37.633 241.855 37.633 239.777 37.633 237.742 36.375 237.742 34.137 237.742 32.375 238.59 31.348 239.754 30.773 240.922 30.203 242.43 30.09 243.707 30.09H245.398C245.398 28.191 244.555 27.551 242.746 27.551 241.445 27.551 240.145 28.055 239.113 28.832L239.023 26.199" fill="#231f20"/>
<path d="M251.27 20.211H254.332V37.359H251.27Z" fill="#231f20"/>
<path d="M264.547 28.055C263.609 27.734 262.926 27.551 261.805 27.551 260.98 27.551 260 27.848 260 28.852 260 30.727 265.324 29.539 265.324 33.793 265.324 36.535 262.879 37.633 260.387 37.633 259.223 37.633 258.035 37.43 256.914 37.133L257.098 34.617C258.059 35.098 259.062 35.395 260.113 35.395 260.891 35.395 262.125 35.098 262.125 33.953 262.125 31.645 256.801 33.223 256.801 28.969 256.801 26.43 259.016 25.309 261.414 25.309 262.855 25.309 263.793 25.539 264.754 25.742L264.547 28.055" fill="#231f20"/>
<path d="M53.645 45.363H61.457V46.734H55.219V52.43H61.137V53.801H55.219V59.953H61.73V61.328H53.645V45.363" fill="#231f20"/>
<path d="M67.422 59.383H67.445L70.801 49.66H72.309L67.652 63.066C67.102 64.668 66.281 66.266 64.656 66.266 64.133 66.266 63.586 66.199 63.105 66.086L63.242 64.848C63.516 64.941 63.789 65.031 64.316 65.031 65.551 65.031 65.961 64.004 66.418 62.492L66.715 61.465 62.578 49.66H64.156L67.422 59.383" fill="#231f20"/>
<path d="M80.695 54.672C80.695 52.637 79.875 50.621 77.727 50.621 75.602 50.621 74.301 52.75 74.301 54.672ZM81.406 60.961C80.398 61.371 79.098 61.602 78.023 61.602 74.164 61.602 72.723 58.992 72.723 55.492 72.723 51.926 74.688 49.387 77.637 49.387 80.926 49.387 82.273 52.039 82.273 55.176V55.906H74.301C74.301 58.375 75.625 60.367 78.137 60.367 79.188 60.367 80.719 59.93 81.406 59.496V60.961" fill="#231f20"/>
<path d="M89.859 45.363H91.437007V61.328H89.859Z" fill="#231f20"/>
<path d="M94.246 52.406C94.246 51.516 94.246 50.598 94.156 49.66H95.551V51.742H95.594C96.074 50.691 96.945 49.387 99.363 49.387 102.242 49.387 103.34 51.309 103.34 53.871V61.328H101.898V54.234C101.898 52.039 101.121 50.621 99.137 50.621 96.508 50.621 95.688 52.934 95.688 54.875V61.328H94.246V52.406" fill="#231f20"/>
<path d="M105.328 59.633C106.199 60.07 107.25 60.367 108.367 60.367 109.738 60.367 110.949 59.609 110.949 58.285 110.949 55.516 105.352 55.953 105.352 52.566 105.352 50.258 107.227 49.387 109.145 49.387 109.762 49.387 110.996 49.523 112.023 49.914L111.887 51.172C111.133 50.828 110.105 50.621 109.305 50.621 107.82 50.621 106.793 51.078 106.793 52.566 106.793 54.738 112.523 54.465 112.523 58.285 112.523 60.754 110.219 61.602 108.461 61.602 107.34 61.602 106.223 61.465 105.191 61.051L105.328 59.633" fill="#231f20"/>
<path d="M119.402 50.898H116.754V58.445C116.754 59.496 117.145 60.367 118.309 60.367 118.855 60.367 119.223 60.25 119.633 60.09L119.723 61.281C119.383 61.418 118.672 61.602 117.965 61.602 115.406 61.602 115.316 59.84 115.316 57.711V50.898H113.031V49.66H115.316V46.848L116.754 46.344V49.66H119.402V50.898" fill="#231f20"/>
<path d="M121.258 49.66H122.695V61.328H121.258ZM122.695 46.551H121.258V44.629H122.695V46.551" fill="#231f20"/>
<path d="M130.621 50.898H127.973V58.445C127.973 59.496 128.359 60.367 129.527 60.367 130.074 60.367 130.441 60.25 130.852 60.09L130.941 61.281C130.602 61.418 129.891 61.602 129.184 61.602 126.625 61.602 126.535 59.84 126.535 57.711V50.898H124.25V49.66H126.535V46.848L127.973 46.344V49.66H130.621V50.898" fill="#231f20"/>
<path d="M141.566 58.582C141.566 59.473 141.566 60.391 141.656 61.328H140.266V59.246H140.219C139.738 60.297 138.871 61.602 136.449 61.602 133.57 61.602 132.477 59.68 132.477 57.117V49.66H133.914V56.754C133.914 58.949 134.691 60.367 136.68 60.367 139.305 60.367 140.129 58.055 140.129 56.113V49.66H141.566V58.582" fill="#231f20"/>
<path d="M149.473 50.898H146.824V58.445C146.824 59.496 147.211 60.367 148.379 60.367 148.926 60.367 149.289 60.25 149.703 60.09L149.793 61.281C149.449 61.418 148.742 61.602 148.035 61.602 145.477 61.602 145.387 59.84 145.387 57.711V50.898H143.102V49.66H145.387V46.848L146.824 46.344V49.66H149.473V50.898" fill="#231f20"/>
<path d="M158.43 54.672C158.43 52.637 157.609 50.621 155.461 50.621 153.336 50.621 152.035 52.75 152.035 54.672ZM159.137 60.961C158.133 61.371 156.832 61.602 155.758 61.602 151.898 61.602 150.457 58.992 150.457 55.492 150.457 51.926 152.422 49.387 155.367 49.387 158.656 49.387 160.008 52.039 160.008 55.176V55.906H152.035C152.035 58.375 153.359 60.367 155.871 60.367 156.922 60.367 158.453 59.93 159.137 59.496V60.961" fill="#231f20"/>
</g>
</svg>
